<svg xmlns="http://www.w3.org/2000/svg" viewBox="0 0 200 220">
  <polygon points="100,150 172,184 100,218 28,184" fill="#2a2540" stroke="#454062" stroke-width="2"/>
  <polygon points="100,160 158,184 100,208 42,184" fill="#332e4d"/>
  <ellipse cx="100" cy="184" rx="54" ry="16" fill="#000" opacity="0.35"/>
  <rect x="82" y="140" width="14" height="44" rx="6" fill="#d8d0c0"/>
  <rect x="106" y="140" width="14" height="44" rx="6" fill="#d8d0c0"/>
  <ellipse cx="89" cy="184" rx="14" ry="7" fill="#b8b0a0"/>
  <ellipse cx="113" cy="184" rx="14" ry="7" fill="#b8b0a0"/>
  <ellipse cx="100" cy="140" rx="22" ry="14" fill="#e8e0d0"/>
  <rect x="97" y="70" width="7" height="72" rx="3" fill="#d8d0c0"/>
  <path d="M74 92 q26 12 54 0" fill="none" stroke="#e8e0d0" stroke-width="7"/>
  <path d="M72 106 q28 14 58 0" fill="none" stroke="#e8e0d0" stroke-width="7"/>
  <path d="M74 120 q26 14 54 0" fill="none" stroke="#e8e0d0" stroke-width="7"/>
  <path d="M78 132 q22 12 46 0" fill="none" stroke="#e8e0d0" stroke-width="7"/>
  <path d="M74 92 q-26 10 -28 34" fill="none" stroke="#d8d0c0" stroke-width="10" stroke-linecap="round"/>
  <path d="M128 92 q26 10 28 34" fill="none" stroke="#d8d0c0" stroke-width="10" stroke-linecap="round"/>
  <circle cx="46" cy="128" r="9" fill="#e8e0d0"/>
  <circle cx="156" cy="128" r="9" fill="#e8e0d0"/>
  <circle cx="100" cy="64" r="24" fill="#e8e0d0"/>
  <path d="M80 74 q20 16 42 0 l0 10 q-20 12 -42 0 z" fill="#d8d0c0"/>
  <circle cx="91" cy="62" r="7" fill="#0a0a12"/>
  <circle cx="111" cy="62" r="7" fill="#0a0a12"/>
  <circle cx="91" cy="62" r="4" fill="#ff5a3a"/>
  <circle cx="111" cy="62" r="4" fill="#ff5a3a"/>
  <path d="M90 84 h20 v5 h-20 z" fill="#d8d0c0"/>
  <path d="M92 84 v5 M97 84 v5 M103 84 v5 M108 84 v5" stroke="#8a8272" stroke-width="1.5"/>
</svg>
