<svg xmlns="http://www.w3.org/2000/svg" viewBox="0 0 200 220">
  <polygon points="100,150 172,184 100,218 28,184" fill="#2a2540" stroke="#454062" stroke-width="2"/>
  <polygon points="100,160 158,184 100,208 42,184" fill="#332e4d"/>
  <ellipse cx="100" cy="184" rx="54" ry="16" fill="#000" opacity="0.35"/>
  <path d="M84 112 q-28 12 -24 50 q16 8 30 -2 z" fill="#7a2424"/>
  <path d="M84 112 q-28 12 -24 50 q8 4 16 2 q-6 -28 8 -52 z" fill="#8f2c2c"/>
  <rect x="86" y="150" width="13" height="34" rx="5" fill="#5a6478"/>
  <rect x="103" y="150" width="13" height="34" rx="5" fill="#4a5468"/>
  <ellipse cx="92" cy="184" rx="13" ry="6" fill="#33333d"/>
  <ellipse cx="110" cy="184" rx="13" ry="6" fill="#33333d"/>
  <path d="M78 112 q24 -12 46 0 q8 24 -4 42 h-38 q-12 -18 -4 -42 z" fill="#6b7688"/>
  <ellipse cx="98" cy="126" rx="15" ry="17" fill="#7d8898"/>
  <path d="M80 146 h42 l-3 10 h-36 z" fill="#4a3a2a"/>
  <rect x="95" y="146" width="11" height="10" rx="2" fill="#c9a24a"/>
  <circle cx="80" cy="114" r="10" fill="#7a8494"/>
  <circle cx="124" cy="114" r="10" fill="#7a8494"/>
  <path d="M80 116 q-15 6 -13 24" fill="none" stroke="#6b7688" stroke-width="12" stroke-linecap="round"/>
  <path d="M62 118 q-17 5 -15 27 q11 13 28 6 q4 -22 -13 -33 z" fill="#5a6a8a"/>
  <path d="M62 118 q-17 5 -15 27 q11 13 28 6 q4 -22 -13 -33 z" fill="none" stroke="#3f4c66" stroke-width="2"/>
  <circle cx="69" cy="133" r="6" fill="#c9a24a"/>
  <path d="M124 116 q17 4 19 18" fill="none" stroke="#6b7688" stroke-width="12" stroke-linecap="round"/>
  <g transform="rotate(32 140 120)">
    <rect x="137" y="66" width="7" height="54" rx="3" fill="#c8ccd4"/>
    <path d="M137 66 l3.5 -11 l3.5 11 z" fill="#eef1f5"/>
    <rect x="130" y="118" width="21" height="6" rx="2" fill="#6a5a3a"/>
    <rect x="138" y="124" width="6" height="15" rx="2" fill="#4a3a2a"/>
  </g>
  <ellipse cx="102" cy="92" rx="20" ry="20" fill="#7a8494"/>
  <path d="M84 96 q18 12 36 0 l-2 11 q-16 8 -32 0 z" fill="#5a6478"/>
  <rect x="88" y="89" width="28" height="5" rx="2" fill="#232a33"/>
  <path d="M102 74 q-5 -15 6 -19 q11 4 4 19 z" fill="#8a2a2a"/>
  <path d="M90 82 q10 -6 20 0" fill="none" stroke="#9aa4b4" stroke-width="2"/>
</svg>
