<svg xmlns="http://www.w3.org/2000/svg" viewBox="0 0 200 220">
  <defs>
    <radialGradient id="soulGlow" cx="0.5" cy="0.5" r="0.5">
      <stop offset="0" stop-color="rgba(150,200,255,0.4)"/>
      <stop offset="1" stop-color="rgba(150,200,255,0)"/>
    </radialGradient>
  </defs>
  <ellipse cx="100" cy="190" rx="50" ry="15" fill="url(#soulGlow)"/>
  <path d="M72 96 q28 -24 56 0 q10 42 -4 80 q-8 -8 -14 0 q-8 -8 -14 0 q-8 -8 -14 0 q-8 -8 -14 0 q-6 -42 4 -80 z" fill="#a8d0f0" opacity="0.5"/>
  <path d="M72 96 q28 -24 56 0 q6 22 2 42 h-60 q-4 -20 2 -42 z" fill="#c0e0ff" opacity="0.5"/>
  <ellipse cx="92" cy="106" rx="5" ry="8" fill="#16283a"/>
  <ellipse cx="108" cy="106" rx="5" ry="8" fill="#16283a"/>
  <ellipse cx="100" cy="124" rx="4" ry="7" fill="#16283a" opacity="0.7"/>
</svg>
