<svg xmlns="http://www.w3.org/2000/svg" viewBox="0 0 200 220">
  <polygon points="100,150 172,184 100,218 28,184" fill="#3a2430" stroke="#6a4050" stroke-width="2"/>
  <polygon points="100,160 158,184 100,208 42,184" fill="#4a2e3c"/>
  <ellipse cx="100" cy="184" rx="54" ry="16" fill="#000" opacity="0.4"/>
  <ellipse cx="100" cy="120" rx="54" ry="64" fill="#8ab0ff" opacity="0.10"/>
  <path d="M72 184 q-10 -64 28 -98 q38 34 28 98 l-9 -13 l-9 15 l-9 -13 l-9 15 l-9 -13 l-9 13 z" fill="#3a4a6a" opacity="0.7"/>
  <path d="M84 184 q-6 -54 16 -78 q22 24 16 78 l-7 -11 l-7 13 l-7 -11 l-7 13 l-7 -11 l-7 11 z" fill="#5a6a8a" opacity="0.6"/>
  <path d="M80 70 q20 -16 42 0 q-4 -14 -20 -14 q-16 0 -22 14 z" fill="#8ab0ff" opacity="0.5"/>
  <path d="M84 66 l4 -14 l6 10 l6 -14 l6 14 l6 -10 l6 14 z" fill="#a8c4ff" opacity="0.7"/>
  <ellipse cx="100" cy="90" rx="22" ry="24" fill="#6a7a9a" opacity="0.75"/>
  <path d="M82 82 q18 -20 38 0 q-4 10 -19 10 q-15 0 -19 -10 z" fill="#4a5a7a" opacity="0.6"/>
  <circle cx="93" cy="90" r="8" fill="#cfe0ff" opacity="0.35"/>
  <circle cx="107" cy="90" r="8" fill="#cfe0ff" opacity="0.35"/>
  <circle cx="93" cy="90" r="5" fill="#e8f0ff"/>
  <circle cx="107" cy="90" r="5" fill="#e8f0ff"/>
  <ellipse cx="100" cy="102" rx="5" ry="7" fill="#2a3a5a" opacity="0.7"/>
  <path d="M78 118 q-20 10 -18 32" fill="none" stroke="#5a6a8a" stroke-width="10" stroke-linecap="round" opacity="0.6"/>
  <path d="M122 118 q20 10 18 32" fill="none" stroke="#5a6a8a" stroke-width="10" stroke-linecap="round" opacity="0.6"/>
</svg>
